
            <svg xmlns="http://www.w3.org/2000/svg" xmlns:cc="http://creativecommons.org/ns#" xmlns:rdf="http://www.w3.org/1999/02/22-rdf-syntax-ns#" version="1.1" width="2138.421630859375" height="618.7813720703125">
              <defs>
                <style type="text/css">svg {
            background-color: #fff; }
          
          .root text,
          .root tspan {
            font: 12px Arial; }
          
          .root path {
            fill-opacity: 0;
            stroke-width: 2px;
            stroke: #000; }
          
          .root circle {
            fill: #6b6659;
            stroke-width: 2px;
            stroke: #000; }
          
          .anchor text, .any-character text {
            fill: #fff; }
          
          .anchor rect, .any-character rect {
            fill: #6b6659; }
          
          .escape text, .charset-escape text, .literal text {
            fill: #000; }
          
          .escape rect, .charset-escape rect {
            fill: #bada55; }
          
          .literal rect {
            fill: #dae9e5; }
          
          .charset .charset-box {
            fill: #cbcbba; }
          
          .subexp .subexp-label tspan,
          .charset .charset-label tspan,
          .match-fragment .repeat-label tspan {
            font-size: 10px; }
          
          .repeat-label {
            cursor: help; }
          
          .subexp .subexp-label tspan,
          .charset .charset-label tspan {
            dominant-baseline: text-after-edge; }
          
          .subexp .subexp-box {
            stroke: #908c83;
            stroke-dasharray: 6,2;
            stroke-width: 2px;
            fill-opacity: 0; }
          
          .quote {
            fill: #908c83; }
          </style>
              </defs>
              <metadata>
                <rdf:rdf>
                  <cc:license rdf:about="http://creativecommons.org/licenses/by/3.0/">
                    <cc:permits rdf:resource="http://creativecommons.org/ns#Reproduction"></cc:permits>
                    <cc:permits rdf:resource="http://creativecommons.org/ns#Distribution"></cc:permits>
                    <cc:requires rdf:resource="http://creativecommons.org/ns#Notice"></cc:requires>
                    <cc:requires rdf:resource="http://creativecommons.org/ns#Attribution"></cc:requires>
                    <cc:permits rdf:resource="http://creativecommons.org/ns#DerivativeWorks"></cc:permits>
                  </cc:license>
                </rdf:rdf>
              </metadata>
            <desc>Created with Snap</desc><g transform="matrix(1,0,0,1,15,10.2968)" class="root"><g transform="matrix(1,0,0,1,10,0)" class="regexp match"><path d="M70.6875,320.59385H80.6875M102,320.59385H137M476.9530944824219,320.59388031311033H536.9531M933.2186944824218,320.59385H993.2187M1014.5312,320.59385H1049.5312M1986.7186,320.59385H2021.7185"></path><g transform="matrix(1,0,0,1,0,309.0001)" class="match-fragment"><g class="label anchor"><rect width="70.6875" height="23.1875"></rect><text x="0" y="0" transform="matrix(1,0,0,1,5,16.5938)"><tspan>Start of line</tspan></text></g></g><g transform="matrix(1,0,0,1,80.6875,309.0001)" class="match-fragment literal"><g class="label"><rect width="21.3125" height="23.1875" rx="3" ry="3"></rect><text x="0" y="0" transform="matrix(1,0,0,1,5,16.5938)"><tspan class="quote">“</tspan><tspan>[</tspan><tspan class="quote">”</tspan></text></g></g><g transform="matrix(1,0,0,1,112,62.5938)" class="match-fragment"><path d="M0,258.00008031311035q10,0 10,-10v-238.29693051757812q0,-10 10,-10h349.9530944824219q10,0 10,10v238.29693051757812q0,10 10,10"></path><g transform="matrix(1,0,0,1,15,10)" class="subexp"><rect rx="3" ry="3" class="subexp-box" transform="matrix(1,0,0,1,0,11.2969)" width="359.9530944824219" height="474.00006103515625"></rect><text x="0" y="0" transform="matrix(1,0,0,1,0,11.2969)" class="subexp-label"><tspan>group #1</tspan></text><g transform="matrix(1,0,0,1,10,21.2969)" class="regexp"><path d="M10,52.89065q0,-10 10,-10M329.9530944824219,52.89065q0,-10 -10,-10M10,132.73445q0,-10 10,-10M329.9530944824219,132.73445q0,-10 -10,-10M10,212.57815q0,-10 10,-10M329.9530944824219,212.57815q0,-10 -10,-10M10,272.42195q0,10 10,10M329.9530944824219,272.42195q0,10 -10,10M10,352.26565q0,10 10,10M329.9530944824219,352.26565q0,10 -10,10M10,422.10945q0,10 10,10M329.9530944824219,422.10945q0,10 -10,10M0,226.70318031311035q10,0 10,-10V52.89065M339.9530944824219,226.70318031311035q-10,0 -10,-10V52.89065M0,226.70318031311035q10,0 10,10V422.10945M339.9530944824219,226.70318031311035q-10,0 -10,10V422.10945"></path><g transform="matrix(1,0,0,1,20,0)" class="regexp-matches"><path d="M0,42.89065h105.4843M194.4687,42.89065H299.9530944824219M0,122.73445000000001h89.8281M225.125,122.73445000000001H299.9530944824219M0,202.57815h74.8281M210.125,202.57815H299.9530944824219M0,282.42195h25.3359M274.61719999999997,282.42195H299.9530944824219M0,362.26565h25M274.9531,362.26565H299.9530944824219M0,432.10945h139.3203M160.6328,432.10945H299.9530944824219"></path><g transform="matrix(1,0,0,1,80.4843,0)" class="match match-fragment subexp"><rect rx="3" ry="3" class="subexp-box" transform="matrix(1,0,0,1,0,11.2969)" width="138.98440551757812" height="63.25"></rect><text x="0" y="0" transform="matrix(1,0,0,1,0,11.2969)" class="subexp-label"><tspan>group #2</tspan></text><g transform="matrix(1,0,0,1,10,21.2969)" class="regexp match"><path d="M36.984375,21.59375H71.9844"></path><g transform="matrix(1,0,0,1,0,0)" class="match-fragment"><path d="M0,21.59375q10,0 10,-10v-1.59375q0,-10 10,-10h11.984375q10,0 10,10v1.59375q0,10 10,10"></path><g transform="matrix(1,0,0,1,15,10)" class="literal"><g class="label"><rect width="21.984375" height="23.1875" rx="3" ry="3"></rect><text x="0" y="0" transform="matrix(1,0,0,1,5,16.5938)"><tspan class="quote">“</tspan><tspan>-</tspan><tspan class="quote">”</tspan></text></g></g></g><g transform="matrix(1,0,0,1,61.9844,9.9375)" class="match-fragment"><path d="M10,11.65625q-10,0 -10,10v1.65625q0,10 10,10h32q10,0 10,-10v-1.65625q0,-10 -10,-10M52,26.65625l5,-5m-5,5l-5,-5"></path><g transform="matrix(1,0,0,1,10,0)" class="escape"><g class="label"><rect width="32" height="23.3125" rx="3" ry="3"></rect><text x="0" y="0" transform="matrix(1,0,0,1,5,16.6563)"><tspan>digit</tspan></text></g></g></g></g></g><g transform="matrix(1,0,0,1,64.8281,79.8438)" class="match match-fragment subexp"><rect rx="3" ry="3" class="subexp-box" transform="matrix(1,0,0,1,0,11.2969)" width="170.29690551757812" height="63.25"></rect><text x="0" y="0" transform="matrix(1,0,0,1,0,11.2969)" class="subexp-label"><tspan>group #3</tspan></text><g transform="matrix(1,0,0,1,10,21.2969)" class="regexp match"><path d="M36.984375,21.59375H71.9844M103.9844,21.59375H128.9844"></path><g transform="matrix(1,0,0,1,0,0)" class="match-fragment"><path d="M0,21.59375q10,0 10,-10v-1.59375q0,-10 10,-10h11.984375q10,0 10,10v1.59375q0,10 10,10"></path><g transform="matrix(1,0,0,1,15,10)" class="literal"><g class="label"><rect width="21.984375" height="23.1875" rx="3" ry="3"></rect><text x="0" y="0" transform="matrix(1,0,0,1,5,16.5938)"><tspan class="quote">“</tspan><tspan>-</tspan><tspan class="quote">”</tspan></text></g></g></g><g transform="matrix(1,0,0,1,61.9844,9.9375)" class="match-fragment"><path d="M10,11.65625q-10,0 -10,10v1.65625q0,10 10,10h32q10,0 10,-10v-1.65625q0,-10 -10,-10M52,26.65625l5,-5m-5,5l-5,-5"></path><g transform="matrix(1,0,0,1,10,0)" class="escape"><g class="label"><rect width="32" height="23.3125" rx="3" ry="3"></rect><text x="0" y="0" transform="matrix(1,0,0,1,5,16.6563)"><tspan>digit</tspan></text></g></g></g><g transform="matrix(1,0,0,1,128.9844,10)" class="match-fragment literal"><g class="label"><rect width="21.3125" height="23.1875" rx="3" ry="3"></rect><text x="0" y="0" transform="matrix(1,0,0,1,5,16.5938)"><tspan class="quote">“</tspan><tspan>:</tspan><tspan class="quote">”</tspan></text></g></g></g></g><g transform="matrix(1,0,0,1,64.8281,159.6875)" class="match match-fragment subexp"><rect rx="3" ry="3" class="subexp-box" transform="matrix(1,0,0,1,0,11.2969)" width="170.29690551757812" height="63.25"></rect><text x="0" y="0" transform="matrix(1,0,0,1,0,11.2969)" class="subexp-label"><tspan>group #4</tspan></text><g transform="matrix(1,0,0,1,10,21.2969)" class="regexp match"><path d="M21.3125,21.59375H46.3125M68.296875,21.59375H103.2969"></path><g transform="matrix(1,0,0,1,0,10)" class="match-fragment literal"><g class="label"><rect width="21.3125" height="23.1875" rx="3" ry="3"></rect><text x="0" y="0" transform="matrix(1,0,0,1,5,16.5938)"><tspan class="quote">“</tspan><tspan>:</tspan><tspan class="quote">”</tspan></text></g></g><g transform="matrix(1,0,0,1,31.3125,0)" class="match-fragment"><path d="M0,21.59375q10,0 10,-10v-1.59375q0,-10 10,-10h11.984375q10,0 10,10v1.59375q0,10 10,10"></path><g transform="matrix(1,0,0,1,15,10)" class="literal"><g class="label"><rect width="21.984375" height="23.1875" rx="3" ry="3"></rect><text x="0" y="0" transform="matrix(1,0,0,1,5,16.5938)"><tspan class="quote">“</tspan><tspan>-</tspan><tspan class="quote">”</tspan></text></g></g></g><g transform="matrix(1,0,0,1,93.2969,9.9375)" class="match-fragment"><path d="M10,11.65625q-10,0 -10,10v1.65625q0,10 10,10h32q10,0 10,-10v-1.65625q0,-10 -10,-10M52,26.65625l5,-5m-5,5l-5,-5"></path><g transform="matrix(1,0,0,1,10,0)" class="escape"><g class="label"><rect width="32" height="23.3125" rx="3" ry="3"></rect><text x="0" y="0" transform="matrix(1,0,0,1,5,16.6563)"><tspan>digit</tspan></text></g></g></g></g></g><g transform="matrix(1,0,0,1,0.3359,239.5313)" class="match match-fragment subexp"><rect rx="3" ry="3" class="subexp-box" transform="matrix(1,0,0,1,0,11.2969)" width="299.28131103515625" height="63.25"></rect><text x="0" y="0" transform="matrix(1,0,0,1,0,11.2969)" class="subexp-label"><tspan>group #5</tspan></text><g transform="matrix(1,0,0,1,10,21.2969)" class="regexp match"><path d="M36.984375,21.59375H71.9844M103.9844,21.59375H128.9844M150.2969,21.59375H175.2969M197.281275,21.59375H232.2813"></path><g transform="matrix(1,0,0,1,0,0)" class="match-fragment"><path d="M0,21.59375q10,0 10,-10v-1.59375q0,-10 10,-10h11.984375q10,0 10,10v1.59375q0,10 10,10"></path><g transform="matrix(1,0,0,1,15,10)" class="literal"><g class="label"><rect width="21.984375" height="23.1875" rx="3" ry="3"></rect><text x="0" y="0" transform="matrix(1,0,0,1,5,16.5938)"><tspan class="quote">“</tspan><tspan>-</tspan><tspan class="quote">”</tspan></text></g></g></g><g transform="matrix(1,0,0,1,61.9844,9.9375)" class="match-fragment"><path d="M10,11.65625q-10,0 -10,10v1.65625q0,10 10,10h32q10,0 10,-10v-1.65625q0,-10 -10,-10M52,26.65625l5,-5m-5,5l-5,-5"></path><g transform="matrix(1,0,0,1,10,0)" class="escape"><g class="label"><rect width="32" height="23.3125" rx="3" ry="3"></rect><text x="0" y="0" transform="matrix(1,0,0,1,5,16.6563)"><tspan>digit</tspan></text></g></g></g><g transform="matrix(1,0,0,1,128.9844,10)" class="match-fragment literal"><g class="label"><rect width="21.3125" height="23.1875" rx="3" ry="3"></rect><text x="0" y="0" transform="matrix(1,0,0,1,5,16.5938)"><tspan class="quote">“</tspan><tspan>:</tspan><tspan class="quote">”</tspan></text></g></g><g transform="matrix(1,0,0,1,160.2969,0)" class="match-fragment"><path d="M0,21.59375q10,0 10,-10v-1.59375q0,-10 10,-10h11.984375q10,0 10,10v1.59375q0,10 10,10"></path><g transform="matrix(1,0,0,1,15,10)" class="literal"><g class="label"><rect width="21.984375" height="23.1875" rx="3" ry="3"></rect><text x="0" y="0" transform="matrix(1,0,0,1,5,16.5938)"><tspan class="quote">“</tspan><tspan>-</tspan><tspan class="quote">”</tspan></text></g></g></g><g transform="matrix(1,0,0,1,222.2813,9.9375)" class="match-fragment"><path d="M10,11.65625q-10,0 -10,10v1.65625q0,10 10,10h32q10,0 10,-10v-1.65625q0,-10 -10,-10M52,26.65625l5,-5m-5,5l-5,-5"></path><g transform="matrix(1,0,0,1,10,0)" class="escape"><g class="label"><rect width="32" height="23.3125" rx="3" ry="3"></rect><text x="0" y="0" transform="matrix(1,0,0,1,5,16.6563)"><tspan>digit</tspan></text></g></g></g></g></g><g transform="matrix(1,0,0,1,0,319.375)" class="match match-fragment subexp"><rect rx="3" ry="3" class="subexp-box" transform="matrix(1,0,0,1,0,11.2969)" width="299.9530944824219" height="63.25"></rect><text x="0" y="0" transform="matrix(1,0,0,1,0,11.2969)" class="subexp-label"><tspan>group #6</tspan></text><g transform="matrix(1,0,0,1,10,21.2969)" class="regexp match"><path d="M36.984375,21.59375H71.9844M103.9844,21.59375H128.9844M150.968775,21.59375H175.9688M197.953175,21.59375H232.9531"></path><g transform="matrix(1,0,0,1,0,0)" class="match-fragment"><path d="M0,21.59375q10,0 10,-10v-1.59375q0,-10 10,-10h11.984375q10,0 10,10v1.59375q0,10 10,10"></path><g transform="matrix(1,0,0,1,15,10)" class="literal"><g class="label"><rect width="21.984375" height="23.1875" rx="3" ry="3"></rect><text x="0" y="0" transform="matrix(1,0,0,1,5,16.5938)"><tspan class="quote">“</tspan><tspan>-</tspan><tspan class="quote">”</tspan></text></g></g></g><g transform="matrix(1,0,0,1,61.9844,9.9375)" class="match-fragment"><path d="M10,11.65625q-10,0 -10,10v1.65625q0,10 10,10h32q10,0 10,-10v-1.65625q0,-10 -10,-10M52,26.65625l5,-5m-5,5l-5,-5"></path><g transform="matrix(1,0,0,1,10,0)" class="escape"><g class="label"><rect width="32" height="23.3125" rx="3" ry="3"></rect><text x="0" y="0" transform="matrix(1,0,0,1,5,16.6563)"><tspan>digit</tspan></text></g></g></g><g transform="matrix(1,0,0,1,128.9844,10)" class="match-fragment literal"><g class="label"><rect width="21.984375" height="23.1875" rx="3" ry="3"></rect><text x="0" y="0" transform="matrix(1,0,0,1,5,16.5938)"><tspan class="quote">“</tspan><tspan>-</tspan><tspan class="quote">”</tspan></text></g></g><g transform="matrix(1,0,0,1,160.9688,0)" class="match-fragment"><path d="M0,21.59375q10,0 10,-10v-1.59375q0,-10 10,-10h11.984375q10,0 10,10v1.59375q0,10 10,10"></path><g transform="matrix(1,0,0,1,15,10)" class="literal"><g class="label"><rect width="21.984375" height="23.1875" rx="3" ry="3"></rect><text x="0" y="0" transform="matrix(1,0,0,1,5,16.5938)"><tspan class="quote">“</tspan><tspan>-</tspan><tspan class="quote">”</tspan></text></g></g></g><g transform="matrix(1,0,0,1,222.9531,9.9375)" class="match-fragment"><path d="M10,11.65625q-10,0 -10,10v1.65625q0,10 10,10h32q10,0 10,-10v-1.65625q0,-10 -10,-10M52,26.65625l5,-5m-5,5l-5,-5"></path><g transform="matrix(1,0,0,1,10,0)" class="escape"><g class="label"><rect width="32" height="23.3125" rx="3" ry="3"></rect><text x="0" y="0" transform="matrix(1,0,0,1,5,16.6563)"><tspan>digit</tspan></text></g></g></g></g></g><g transform="matrix(1,0,0,1,129.3203,399.2188)" class="match match-fragment subexp"><rect rx="3" ry="3" class="subexp-box" transform="matrix(1,0,0,1,0,11.2969)" width="41.3125" height="43.1875"></rect><text x="0" y="0" transform="matrix(1,0,0,1,0,11.2969)" class="subexp-label"><tspan>group #7</tspan></text><g transform="matrix(1,0,0,1,10,21.2969)" class="regexp match match-fragment literal"><g class="label"><rect width="21.3125" height="23.1875" rx="3" ry="3"></rect><text x="0" y="0" transform="matrix(1,0,0,1,5,16.5938)"><tspan class="quote">“</tspan><tspan>:</tspan><tspan class="quote">”</tspan></text></g></g></g></g></g></g></g><g transform="matrix(1,0,0,1,511.9531,31.2969)" class="match-fragment"><path d="M0,289.29695q10,0 10,-10v-269.59380020446775q0,-10 10,-10h431.26556396484375q10,0 10,10v269.59380020446775q0,10 10,10M15,289.29695q-10,0 -10,10v237.5937608306885q0,10 10,10h441.26556396484375q10,0 10,-10v-237.5937608306885q0,-10 -10,-10M466.26556396484375,304.29695l5,-5m-5,5l-5,-5"></path><g transform="matrix(1,0,0,1,15,10)" class="subexp"><rect rx="3" ry="3" class="subexp-box" transform="matrix(1,0,0,1,0,11.2969)" width="441.2655944824219" height="515.5938110351562"></rect><text x="0" y="0" transform="matrix(1,0,0,1,0,11.2969)" class="subexp-label"><tspan>group #8</tspan></text><g transform="matrix(1,0,0,1,10,21.2969)" class="regexp match"><path d="M21.3125,258.00005H56.3125"></path><g transform="matrix(1,0,0,1,0,246.4063)" class="match-fragment literal"><g class="label"><rect width="21.3125" height="23.1875" rx="3" ry="3"></rect><text x="0" y="0" transform="matrix(1,0,0,1,5,16.5938)"><tspan class="quote">“</tspan><tspan>,</tspan><tspan class="quote">”</tspan></text></g></g><g transform="matrix(1,0,0,1,31.3125,0)" class="match-fragment"><path d="M0,258.00008031311035q10,0 10,-10v-238.29693051757812q0,-10 10,-10h349.9530944824219q10,0 10,10v238.29693051757812q0,10 10,10"></path><g transform="matrix(1,0,0,1,15,10)" class="subexp"><rect rx="3" ry="3" class="subexp-box" transform="matrix(1,0,0,1,0,11.2969)" width="359.9530944824219" height="474.00006103515625"></rect><text x="0" y="0" transform="matrix(1,0,0,1,0,11.2969)" class="subexp-label"><tspan>group #9</tspan></text><g transform="matrix(1,0,0,1,10,21.2969)" class="regexp"><path d="M10,52.89065q0,-10 10,-10M329.9530944824219,52.89065q0,-10 -10,-10M10,132.73445q0,-10 10,-10M329.9530944824219,132.73445q0,-10 -10,-10M10,212.57815q0,-10 10,-10M329.9530944824219,212.57815q0,-10 -10,-10M10,272.42195q0,10 10,10M329.9530944824219,272.42195q0,10 -10,10M10,352.26565q0,10 10,10M329.9530944824219,352.26565q0,10 -10,10M10,422.10945q0,10 10,10M329.9530944824219,422.10945q0,10 -10,10M0,226.70318031311035q10,0 10,-10V52.89065M339.9530944824219,226.70318031311035q-10,0 -10,-10V52.89065M0,226.70318031311035q10,0 10,10V422.10945M339.9530944824219,226.70318031311035q-10,0 -10,10V422.10945"></path><g transform="matrix(1,0,0,1,20,0)" class="regexp-matches"><path d="M0,42.89065h105.4843M194.4687,42.89065H299.9530944824219M0,122.73445000000001h89.8281M225.125,122.73445000000001H299.9530944824219M0,202.57815h74.8281M210.125,202.57815H299.9530944824219M0,282.42195h25.3359M274.61719999999997,282.42195H299.9530944824219M0,362.26565h25M274.9531,362.26565H299.9530944824219M0,432.10945h139.3203M160.6328,432.10945H299.9530944824219"></path><g transform="matrix(1,0,0,1,80.4843,0)" class="match match-fragment subexp"><rect rx="3" ry="3" class="subexp-box" transform="matrix(1,0,0,1,0,11.2969)" width="138.98440551757812" height="63.25"></rect><text x="0" y="0" transform="matrix(1,0,0,1,0,11.2969)" class="subexp-label"><tspan>group #10</tspan></text><g transform="matrix(1,0,0,1,10,21.2969)" class="regexp match"><path d="M36.984375,21.59375H71.9844"></path><g transform="matrix(1,0,0,1,0,0)" class="match-fragment"><path d="M0,21.59375q10,0 10,-10v-1.59375q0,-10 10,-10h11.984375q10,0 10,10v1.59375q0,10 10,10"></path><g transform="matrix(1,0,0,1,15,10)" class="literal"><g class="label"><rect width="21.984375" height="23.1875" rx="3" ry="3"></rect><text x="0" y="0" transform="matrix(1,0,0,1,5,16.5938)"><tspan class="quote">“</tspan><tspan>-</tspan><tspan class="quote">”</tspan></text></g></g></g><g transform="matrix(1,0,0,1,61.9844,9.9375)" class="match-fragment"><path d="M10,11.65625q-10,0 -10,10v1.65625q0,10 10,10h32q10,0 10,-10v-1.65625q0,-10 -10,-10M52,26.65625l5,-5m-5,5l-5,-5"></path><g transform="matrix(1,0,0,1,10,0)" class="escape"><g class="label"><rect width="32" height="23.3125" rx="3" ry="3"></rect><text x="0" y="0" transform="matrix(1,0,0,1,5,16.6563)"><tspan>digit</tspan></text></g></g></g></g></g><g transform="matrix(1,0,0,1,64.8281,79.8438)" class="match match-fragment subexp"><rect rx="3" ry="3" class="subexp-box" transform="matrix(1,0,0,1,0,11.2969)" width="170.29690551757812" height="63.25"></rect><text x="0" y="0" transform="matrix(1,0,0,1,0,11.2969)" class="subexp-label"><tspan>group #11</tspan></text><g transform="matrix(1,0,0,1,10,21.2969)" class="regexp match"><path d="M36.984375,21.59375H71.9844M103.9844,21.59375H128.9844"></path><g transform="matrix(1,0,0,1,0,0)" class="match-fragment"><path d="M0,21.59375q10,0 10,-10v-1.59375q0,-10 10,-10h11.984375q10,0 10,10v1.59375q0,10 10,10"></path><g transform="matrix(1,0,0,1,15,10)" class="literal"><g class="label"><rect width="21.984375" height="23.1875" rx="3" ry="3"></rect><text x="0" y="0" transform="matrix(1,0,0,1,5,16.5938)"><tspan class="quote">“</tspan><tspan>-</tspan><tspan class="quote">”</tspan></text></g></g></g><g transform="matrix(1,0,0,1,61.9844,9.9375)" class="match-fragment"><path d="M10,11.65625q-10,0 -10,10v1.65625q0,10 10,10h32q10,0 10,-10v-1.65625q0,-10 -10,-10M52,26.65625l5,-5m-5,5l-5,-5"></path><g transform="matrix(1,0,0,1,10,0)" class="escape"><g class="label"><rect width="32" height="23.3125" rx="3" ry="3"></rect><text x="0" y="0" transform="matrix(1,0,0,1,5,16.6563)"><tspan>digit</tspan></text></g></g></g><g transform="matrix(1,0,0,1,128.9844,10)" class="match-fragment literal"><g class="label"><rect width="21.3125" height="23.1875" rx="3" ry="3"></rect><text x="0" y="0" transform="matrix(1,0,0,1,5,16.5938)"><tspan class="quote">“</tspan><tspan>:</tspan><tspan class="quote">”</tspan></text></g></g></g></g><g transform="matrix(1,0,0,1,64.8281,159.6875)" class="match match-fragment subexp"><rect rx="3" ry="3" class="subexp-box" transform="matrix(1,0,0,1,0,11.2969)" width="170.29690551757812" height="63.25"></rect><text x="0" y="0" transform="matrix(1,0,0,1,0,11.2969)" class="subexp-label"><tspan>group #12</tspan></text><g transform="matrix(1,0,0,1,10,21.2969)" class="regexp match"><path d="M21.3125,21.59375H46.3125M68.296875,21.59375H103.2969"></path><g transform="matrix(1,0,0,1,0,10)" class="match-fragment literal"><g class="label"><rect width="21.3125" height="23.1875" rx="3" ry="3"></rect><text x="0" y="0" transform="matrix(1,0,0,1,5,16.5938)"><tspan class="quote">“</tspan><tspan>:</tspan><tspan class="quote">”</tspan></text></g></g><g transform="matrix(1,0,0,1,31.3125,0)" class="match-fragment"><path d="M0,21.59375q10,0 10,-10v-1.59375q0,-10 10,-10h11.984375q10,0 10,10v1.59375q0,10 10,10"></path><g transform="matrix(1,0,0,1,15,10)" class="literal"><g class="label"><rect width="21.984375" height="23.1875" rx="3" ry="3"></rect><text x="0" y="0" transform="matrix(1,0,0,1,5,16.5938)"><tspan class="quote">“</tspan><tspan>-</tspan><tspan class="quote">”</tspan></text></g></g></g><g transform="matrix(1,0,0,1,93.2969,9.9375)" class="match-fragment"><path d="M10,11.65625q-10,0 -10,10v1.65625q0,10 10,10h32q10,0 10,-10v-1.65625q0,-10 -10,-10M52,26.65625l5,-5m-5,5l-5,-5"></path><g transform="matrix(1,0,0,1,10,0)" class="escape"><g class="label"><rect width="32" height="23.3125" rx="3" ry="3"></rect><text x="0" y="0" transform="matrix(1,0,0,1,5,16.6563)"><tspan>digit</tspan></text></g></g></g></g></g><g transform="matrix(1,0,0,1,0.3359,239.5313)" class="match match-fragment subexp"><rect rx="3" ry="3" class="subexp-box" transform="matrix(1,0,0,1,0,11.2969)" width="299.28131103515625" height="63.25"></rect><text x="0" y="0" transform="matrix(1,0,0,1,0,11.2969)" class="subexp-label"><tspan>group #13</tspan></text><g transform="matrix(1,0,0,1,10,21.2969)" class="regexp match"><path d="M36.984375,21.59375H71.9844M103.9844,21.59375H128.9844M150.2969,21.59375H175.2969M197.281275,21.59375H232.2813"></path><g transform="matrix(1,0,0,1,0,0)" class="match-fragment"><path d="M0,21.59375q10,0 10,-10v-1.59375q0,-10 10,-10h11.984375q10,0 10,10v1.59375q0,10 10,10"></path><g transform="matrix(1,0,0,1,15,10)" class="literal"><g class="label"><rect width="21.984375" height="23.1875" rx="3" ry="3"></rect><text x="0" y="0" transform="matrix(1,0,0,1,5,16.5938)"><tspan class="quote">“</tspan><tspan>-</tspan><tspan class="quote">”</tspan></text></g></g></g><g transform="matrix(1,0,0,1,61.9844,9.9375)" class="match-fragment"><path d="M10,11.65625q-10,0 -10,10v1.65625q0,10 10,10h32q10,0 10,-10v-1.65625q0,-10 -10,-10M52,26.65625l5,-5m-5,5l-5,-5"></path><g transform="matrix(1,0,0,1,10,0)" class="escape"><g class="label"><rect width="32" height="23.3125" rx="3" ry="3"></rect><text x="0" y="0" transform="matrix(1,0,0,1,5,16.6563)"><tspan>digit</tspan></text></g></g></g><g transform="matrix(1,0,0,1,128.9844,10)" class="match-fragment literal"><g class="label"><rect width="21.3125" height="23.1875" rx="3" ry="3"></rect><text x="0" y="0" transform="matrix(1,0,0,1,5,16.5938)"><tspan class="quote">“</tspan><tspan>:</tspan><tspan class="quote">”</tspan></text></g></g><g transform="matrix(1,0,0,1,160.2969,0)" class="match-fragment"><path d="M0,21.59375q10,0 10,-10v-1.59375q0,-10 10,-10h11.984375q10,0 10,10v1.59375q0,10 10,10"></path><g transform="matrix(1,0,0,1,15,10)" class="literal"><g class="label"><rect width="21.984375" height="23.1875" rx="3" ry="3"></rect><text x="0" y="0" transform="matrix(1,0,0,1,5,16.5938)"><tspan class="quote">“</tspan><tspan>-</tspan><tspan class="quote">”</tspan></text></g></g></g><g transform="matrix(1,0,0,1,222.2813,9.9375)" class="match-fragment"><path d="M10,11.65625q-10,0 -10,10v1.65625q0,10 10,10h32q10,0 10,-10v-1.65625q0,-10 -10,-10M52,26.65625l5,-5m-5,5l-5,-5"></path><g transform="matrix(1,0,0,1,10,0)" class="escape"><g class="label"><rect width="32" height="23.3125" rx="3" ry="3"></rect><text x="0" y="0" transform="matrix(1,0,0,1,5,16.6563)"><tspan>digit</tspan></text></g></g></g></g></g><g transform="matrix(1,0,0,1,0,319.375)" class="match match-fragment subexp"><rect rx="3" ry="3" class="subexp-box" transform="matrix(1,0,0,1,0,11.2969)" width="299.9530944824219" height="63.25"></rect><text x="0" y="0" transform="matrix(1,0,0,1,0,11.2969)" class="subexp-label"><tspan>group #14</tspan></text><g transform="matrix(1,0,0,1,10,21.2969)" class="regexp match"><path d="M36.984375,21.59375H71.9844M103.9844,21.59375H128.9844M150.968775,21.59375H175.9688M197.953175,21.59375H232.9531"></path><g transform="matrix(1,0,0,1,0,0)" class="match-fragment"><path d="M0,21.59375q10,0 10,-10v-1.59375q0,-10 10,-10h11.984375q10,0 10,10v1.59375q0,10 10,10"></path><g transform="matrix(1,0,0,1,15,10)" class="literal"><g class="label"><rect width="21.984375" height="23.1875" rx="3" ry="3"></rect><text x="0" y="0" transform="matrix(1,0,0,1,5,16.5938)"><tspan class="quote">“</tspan><tspan>-</tspan><tspan class="quote">”</tspan></text></g></g></g><g transform="matrix(1,0,0,1,61.9844,9.9375)" class="match-fragment"><path d="M10,11.65625q-10,0 -10,10v1.65625q0,10 10,10h32q10,0 10,-10v-1.65625q0,-10 -10,-10M52,26.65625l5,-5m-5,5l-5,-5"></path><g transform="matrix(1,0,0,1,10,0)" class="escape"><g class="label"><rect width="32" height="23.3125" rx="3" ry="3"></rect><text x="0" y="0" transform="matrix(1,0,0,1,5,16.6563)"><tspan>digit</tspan></text></g></g></g><g transform="matrix(1,0,0,1,128.9844,10)" class="match-fragment literal"><g class="label"><rect width="21.984375" height="23.1875" rx="3" ry="3"></rect><text x="0" y="0" transform="matrix(1,0,0,1,5,16.5938)"><tspan class="quote">“</tspan><tspan>-</tspan><tspan class="quote">”</tspan></text></g></g><g transform="matrix(1,0,0,1,160.9688,0)" class="match-fragment"><path d="M0,21.59375q10,0 10,-10v-1.59375q0,-10 10,-10h11.984375q10,0 10,10v1.59375q0,10 10,10"></path><g transform="matrix(1,0,0,1,15,10)" class="literal"><g class="label"><rect width="21.984375" height="23.1875" rx="3" ry="3"></rect><text x="0" y="0" transform="matrix(1,0,0,1,5,16.5938)"><tspan class="quote">“</tspan><tspan>-</tspan><tspan class="quote">”</tspan></text></g></g></g><g transform="matrix(1,0,0,1,222.9531,9.9375)" class="match-fragment"><path d="M10,11.65625q-10,0 -10,10v1.65625q0,10 10,10h32q10,0 10,-10v-1.65625q0,-10 -10,-10M52,26.65625l5,-5m-5,5l-5,-5"></path><g transform="matrix(1,0,0,1,10,0)" class="escape"><g class="label"><rect width="32" height="23.3125" rx="3" ry="3"></rect><text x="0" y="0" transform="matrix(1,0,0,1,5,16.6563)"><tspan>digit</tspan></text></g></g></g></g></g><g transform="matrix(1,0,0,1,127.4609,399.2188)" class="match match-fragment subexp"><rect rx="3" ry="3" class="subexp-box" transform="matrix(1,0,0,1,0,11.2969)" width="45.03125" height="43.1875"></rect><text x="0" y="0" transform="matrix(1,0,0,1,0,11.2969)" class="subexp-label"><tspan>group #15</tspan></text><g transform="matrix(1,0,0,1,11.8594,21.2969)" class="regexp match match-fragment literal"><g class="label"><rect width="21.3125" height="23.1875" rx="3" ry="3"></rect><text x="0" y="0" transform="matrix(1,0,0,1,5,16.5938)"><tspan class="quote">“</tspan><tspan>:</tspan><tspan class="quote">”</tspan></text></g></g></g></g></g></g></g></g></g></g><g transform="matrix(1,0,0,1,993.2187,309.0001)" class="match-fragment literal"><g class="label"><rect width="21.3125" height="23.1875" rx="3" ry="3"></rect><text x="0" y="0" transform="matrix(1,0,0,1,5,16.5938)"><tspan class="quote">“</tspan><tspan>]</tspan><tspan class="quote">”</tspan></text></g></g><g transform="matrix(1,0,0,1,1024.5312,0)" class="match-fragment"><path d="M0,320.59385q10,0 10,-10v-300.89070020446775q0,-10 10,-10h947.1873779296875q10,0 10,10v300.89070020446775q0,10 10,10M15,320.59385q-10,0 -10,10v257.8906108306885q0,10 10,10h957.1873779296875q10,0 10,-10v-257.8906108306885q0,-10 -10,-10M982.1873779296875,335.59385l5,-5m-5,5l-5,-5"></path><g transform="matrix(1,0,0,1,15,10)" class="subexp"><rect rx="3" ry="3" class="subexp-box" transform="matrix(1,0,0,1,0,11.2969)" width="957.1873779296875" height="567.1875610351562"></rect><text x="0" y="0" transform="matrix(1,0,0,1,0,11.2969)" class="subexp-label"><tspan>group #16</tspan></text><g transform="matrix(1,0,0,1,10,21.2969)" class="regexp match"><path d="M24.65625,289.29695H59.6563M399.60939448242186,289.29698031311034H459.6093M855.874894482422,289.29695H915.8749"></path><g transform="matrix(1,0,0,1,0,277.7032)" class="match-fragment literal"><g class="label"><rect width="24.65625" height="23.1875" rx="3" ry="3"></rect><text x="0" y="0" transform="matrix(1,0,0,1,5,16.5938)"><tspan class="quote">“</tspan><tspan>,[</tspan><tspan class="quote">”</tspan></text></g></g><g transform="matrix(1,0,0,1,34.6563,31.2969)" class="match-fragment"><path d="M0,258.00008031311035q10,0 10,-10v-238.29693051757812q0,-10 10,-10h349.9530944824219q10,0 10,10v238.29693051757812q0,10 10,10"></path><g transform="matrix(1,0,0,1,15,10)" class="subexp"><rect rx="3" ry="3" class="subexp-box" transform="matrix(1,0,0,1,0,11.2969)" width="359.9530944824219" height="474.00006103515625"></rect><text x="0" y="0" transform="matrix(1,0,0,1,0,11.2969)" class="subexp-label"><tspan>group #17</tspan></text><g transform="matrix(1,0,0,1,10,21.2969)" class="regexp"><path d="M10,52.89065q0,-10 10,-10M329.9530944824219,52.89065q0,-10 -10,-10M10,132.73445q0,-10 10,-10M329.9530944824219,132.73445q0,-10 -10,-10M10,212.57815q0,-10 10,-10M329.9530944824219,212.57815q0,-10 -10,-10M10,272.42195q0,10 10,10M329.9530944824219,272.42195q0,10 -10,10M10,352.26565q0,10 10,10M329.9530944824219,352.26565q0,10 -10,10M10,422.10945q0,10 10,10M329.9530944824219,422.10945q0,10 -10,10M0,226.70318031311035q10,0 10,-10V52.89065M339.9530944824219,226.70318031311035q-10,0 -10,-10V52.89065M0,226.70318031311035q10,0 10,10V422.10945M339.9530944824219,226.70318031311035q-10,0 -10,10V422.10945"></path><g transform="matrix(1,0,0,1,20,0)" class="regexp-matches"><path d="M0,42.89065h105.4843M194.4687,42.89065H299.9530944824219M0,122.73445000000001h89.8281M225.125,122.73445000000001H299.9530944824219M0,202.57815h74.8281M210.125,202.57815H299.9530944824219M0,282.42195h25.3359M274.61719999999997,282.42195H299.9530944824219M0,362.26565h25M274.9531,362.26565H299.9530944824219M0,432.10945h139.3203M160.6328,432.10945H299.9530944824219"></path><g transform="matrix(1,0,0,1,80.4843,0)" class="match match-fragment subexp"><rect rx="3" ry="3" class="subexp-box" transform="matrix(1,0,0,1,0,11.2969)" width="138.98440551757812" height="63.25"></rect><text x="0" y="0" transform="matrix(1,0,0,1,0,11.2969)" class="subexp-label"><tspan>group #18</tspan></text><g transform="matrix(1,0,0,1,10,21.2969)" class="regexp match"><path d="M36.984375,21.59375H71.9844"></path><g transform="matrix(1,0,0,1,0,0)" class="match-fragment"><path d="M0,21.59375q10,0 10,-10v-1.59375q0,-10 10,-10h11.984375q10,0 10,10v1.59375q0,10 10,10"></path><g transform="matrix(1,0,0,1,15,10)" class="literal"><g class="label"><rect width="21.984375" height="23.1875" rx="3" ry="3"></rect><text x="0" y="0" transform="matrix(1,0,0,1,5,16.5938)"><tspan class="quote">“</tspan><tspan>-</tspan><tspan class="quote">”</tspan></text></g></g></g><g transform="matrix(1,0,0,1,61.9844,9.9375)" class="match-fragment"><path d="M10,11.65625q-10,0 -10,10v1.65625q0,10 10,10h32q10,0 10,-10v-1.65625q0,-10 -10,-10M52,26.65625l5,-5m-5,5l-5,-5"></path><g transform="matrix(1,0,0,1,10,0)" class="escape"><g class="label"><rect width="32" height="23.3125" rx="3" ry="3"></rect><text x="0" y="0" transform="matrix(1,0,0,1,5,16.6563)"><tspan>digit</tspan></text></g></g></g></g></g><g transform="matrix(1,0,0,1,64.8281,79.8438)" class="match match-fragment subexp"><rect rx="3" ry="3" class="subexp-box" transform="matrix(1,0,0,1,0,11.2969)" width="170.29690551757812" height="63.25"></rect><text x="0" y="0" transform="matrix(1,0,0,1,0,11.2969)" class="subexp-label"><tspan>group #19</tspan></text><g transform="matrix(1,0,0,1,10,21.2969)" class="regexp match"><path d="M36.984375,21.59375H71.9844M103.9844,21.59375H128.9844"></path><g transform="matrix(1,0,0,1,0,0)" class="match-fragment"><path d="M0,21.59375q10,0 10,-10v-1.59375q0,-10 10,-10h11.984375q10,0 10,10v1.59375q0,10 10,10"></path><g transform="matrix(1,0,0,1,15,10)" class="literal"><g class="label"><rect width="21.984375" height="23.1875" rx="3" ry="3"></rect><text x="0" y="0" transform="matrix(1,0,0,1,5,16.5938)"><tspan class="quote">“</tspan><tspan>-</tspan><tspan class="quote">”</tspan></text></g></g></g><g transform="matrix(1,0,0,1,61.9844,9.9375)" class="match-fragment"><path d="M10,11.65625q-10,0 -10,10v1.65625q0,10 10,10h32q10,0 10,-10v-1.65625q0,-10 -10,-10M52,26.65625l5,-5m-5,5l-5,-5"></path><g transform="matrix(1,0,0,1,10,0)" class="escape"><g class="label"><rect width="32" height="23.3125" rx="3" ry="3"></rect><text x="0" y="0" transform="matrix(1,0,0,1,5,16.6563)"><tspan>digit</tspan></text></g></g></g><g transform="matrix(1,0,0,1,128.9844,10)" class="match-fragment literal"><g class="label"><rect width="21.3125" height="23.1875" rx="3" ry="3"></rect><text x="0" y="0" transform="matrix(1,0,0,1,5,16.5938)"><tspan class="quote">“</tspan><tspan>:</tspan><tspan class="quote">”</tspan></text></g></g></g></g><g transform="matrix(1,0,0,1,64.8281,159.6875)" class="match match-fragment subexp"><rect rx="3" ry="3" class="subexp-box" transform="matrix(1,0,0,1,0,11.2969)" width="170.29690551757812" height="63.25"></rect><text x="0" y="0" transform="matrix(1,0,0,1,0,11.2969)" class="subexp-label"><tspan>group #20</tspan></text><g transform="matrix(1,0,0,1,10,21.2969)" class="regexp match"><path d="M21.3125,21.59375H46.3125M68.296875,21.59375H103.2969"></path><g transform="matrix(1,0,0,1,0,10)" class="match-fragment literal"><g class="label"><rect width="21.3125" height="23.1875" rx="3" ry="3"></rect><text x="0" y="0" transform="matrix(1,0,0,1,5,16.5938)"><tspan class="quote">“</tspan><tspan>:</tspan><tspan class="quote">”</tspan></text></g></g><g transform="matrix(1,0,0,1,31.3125,0)" class="match-fragment"><path d="M0,21.59375q10,0 10,-10v-1.59375q0,-10 10,-10h11.984375q10,0 10,10v1.59375q0,10 10,10"></path><g transform="matrix(1,0,0,1,15,10)" class="literal"><g class="label"><rect width="21.984375" height="23.1875" rx="3" ry="3"></rect><text x="0" y="0" transform="matrix(1,0,0,1,5,16.5938)"><tspan class="quote">“</tspan><tspan>-</tspan><tspan class="quote">”</tspan></text></g></g></g><g transform="matrix(1,0,0,1,93.2969,9.9375)" class="match-fragment"><path d="M10,11.65625q-10,0 -10,10v1.65625q0,10 10,10h32q10,0 10,-10v-1.65625q0,-10 -10,-10M52,26.65625l5,-5m-5,5l-5,-5"></path><g transform="matrix(1,0,0,1,10,0)" class="escape"><g class="label"><rect width="32" height="23.3125" rx="3" ry="3"></rect><text x="0" y="0" transform="matrix(1,0,0,1,5,16.6563)"><tspan>digit</tspan></text></g></g></g></g></g><g transform="matrix(1,0,0,1,0.3359,239.5313)" class="match match-fragment subexp"><rect rx="3" ry="3" class="subexp-box" transform="matrix(1,0,0,1,0,11.2969)" width="299.28131103515625" height="63.25"></rect><text x="0" y="0" transform="matrix(1,0,0,1,0,11.2969)" class="subexp-label"><tspan>group #21</tspan></text><g transform="matrix(1,0,0,1,10,21.2969)" class="regexp match"><path d="M36.984375,21.59375H71.9844M103.9844,21.59375H128.9844M150.2969,21.59375H175.2969M197.281275,21.59375H232.2813"></path><g transform="matrix(1,0,0,1,0,0)" class="match-fragment"><path d="M0,21.59375q10,0 10,-10v-1.59375q0,-10 10,-10h11.984375q10,0 10,10v1.59375q0,10 10,10"></path><g transform="matrix(1,0,0,1,15,10)" class="literal"><g class="label"><rect width="21.984375" height="23.1875" rx="3" ry="3"></rect><text x="0" y="0" transform="matrix(1,0,0,1,5,16.5938)"><tspan class="quote">“</tspan><tspan>-</tspan><tspan class="quote">”</tspan></text></g></g></g><g transform="matrix(1,0,0,1,61.9844,9.9375)" class="match-fragment"><path d="M10,11.65625q-10,0 -10,10v1.65625q0,10 10,10h32q10,0 10,-10v-1.65625q0,-10 -10,-10M52,26.65625l5,-5m-5,5l-5,-5"></path><g transform="matrix(1,0,0,1,10,0)" class="escape"><g class="label"><rect width="32" height="23.3125" rx="3" ry="3"></rect><text x="0" y="0" transform="matrix(1,0,0,1,5,16.6563)"><tspan>digit</tspan></text></g></g></g><g transform="matrix(1,0,0,1,128.9844,10)" class="match-fragment literal"><g class="label"><rect width="21.3125" height="23.1875" rx="3" ry="3"></rect><text x="0" y="0" transform="matrix(1,0,0,1,5,16.5938)"><tspan class="quote">“</tspan><tspan>:</tspan><tspan class="quote">”</tspan></text></g></g><g transform="matrix(1,0,0,1,160.2969,0)" class="match-fragment"><path d="M0,21.59375q10,0 10,-10v-1.59375q0,-10 10,-10h11.984375q10,0 10,10v1.59375q0,10 10,10"></path><g transform="matrix(1,0,0,1,15,10)" class="literal"><g class="label"><rect width="21.984375" height="23.1875" rx="3" ry="3"></rect><text x="0" y="0" transform="matrix(1,0,0,1,5,16.5938)"><tspan class="quote">“</tspan><tspan>-</tspan><tspan class="quote">”</tspan></text></g></g></g><g transform="matrix(1,0,0,1,222.2813,9.9375)" class="match-fragment"><path d="M10,11.65625q-10,0 -10,10v1.65625q0,10 10,10h32q10,0 10,-10v-1.65625q0,-10 -10,-10M52,26.65625l5,-5m-5,5l-5,-5"></path><g transform="matrix(1,0,0,1,10,0)" class="escape"><g class="label"><rect width="32" height="23.3125" rx="3" ry="3"></rect><text x="0" y="0" transform="matrix(1,0,0,1,5,16.6563)"><tspan>digit</tspan></text></g></g></g></g></g><g transform="matrix(1,0,0,1,0,319.375)" class="match match-fragment subexp"><rect rx="3" ry="3" class="subexp-box" transform="matrix(1,0,0,1,0,11.2969)" width="299.9530944824219" height="63.25"></rect><text x="0" y="0" transform="matrix(1,0,0,1,0,11.2969)" class="subexp-label"><tspan>group #22</tspan></text><g transform="matrix(1,0,0,1,10,21.2969)" class="regexp match"><path d="M36.984375,21.59375H71.9844M103.9844,21.59375H128.9844M150.968775,21.59375H175.9688M197.953175,21.59375H232.9531"></path><g transform="matrix(1,0,0,1,0,0)" class="match-fragment"><path d="M0,21.59375q10,0 10,-10v-1.59375q0,-10 10,-10h11.984375q10,0 10,10v1.59375q0,10 10,10"></path><g transform="matrix(1,0,0,1,15,10)" class="literal"><g class="label"><rect width="21.984375" height="23.1875" rx="3" ry="3"></rect><text x="0" y="0" transform="matrix(1,0,0,1,5,16.5938)"><tspan class="quote">“</tspan><tspan>-</tspan><tspan class="quote">”</tspan></text></g></g></g><g transform="matrix(1,0,0,1,61.9844,9.9375)" class="match-fragment"><path d="M10,11.65625q-10,0 -10,10v1.65625q0,10 10,10h32q10,0 10,-10v-1.65625q0,-10 -10,-10M52,26.65625l5,-5m-5,5l-5,-5"></path><g transform="matrix(1,0,0,1,10,0)" class="escape"><g class="label"><rect width="32" height="23.3125" rx="3" ry="3"></rect><text x="0" y="0" transform="matrix(1,0,0,1,5,16.6563)"><tspan>digit</tspan></text></g></g></g><g transform="matrix(1,0,0,1,128.9844,10)" class="match-fragment literal"><g class="label"><rect width="21.984375" height="23.1875" rx="3" ry="3"></rect><text x="0" y="0" transform="matrix(1,0,0,1,5,16.5938)"><tspan class="quote">“</tspan><tspan>-</tspan><tspan class="quote">”</tspan></text></g></g><g transform="matrix(1,0,0,1,160.9688,0)" class="match-fragment"><path d="M0,21.59375q10,0 10,-10v-1.59375q0,-10 10,-10h11.984375q10,0 10,10v1.59375q0,10 10,10"></path><g transform="matrix(1,0,0,1,15,10)" class="literal"><g class="label"><rect width="21.984375" height="23.1875" rx="3" ry="3"></rect><text x="0" y="0" transform="matrix(1,0,0,1,5,16.5938)"><tspan class="quote">“</tspan><tspan>-</tspan><tspan class="quote">”</tspan></text></g></g></g><g transform="matrix(1,0,0,1,222.9531,9.9375)" class="match-fragment"><path d="M10,11.65625q-10,0 -10,10v1.65625q0,10 10,10h32q10,0 10,-10v-1.65625q0,-10 -10,-10M52,26.65625l5,-5m-5,5l-5,-5"></path><g transform="matrix(1,0,0,1,10,0)" class="escape"><g class="label"><rect width="32" height="23.3125" rx="3" ry="3"></rect><text x="0" y="0" transform="matrix(1,0,0,1,5,16.6563)"><tspan>digit</tspan></text></g></g></g></g></g><g transform="matrix(1,0,0,1,127.4609,399.2188)" class="match match-fragment subexp"><rect rx="3" ry="3" class="subexp-box" transform="matrix(1,0,0,1,0,11.2969)" width="45.03125" height="43.1875"></rect><text x="0" y="0" transform="matrix(1,0,0,1,0,11.2969)" class="subexp-label"><tspan>group #23</tspan></text><g transform="matrix(1,0,0,1,11.8594,21.2969)" class="regexp match match-fragment literal"><g class="label"><rect width="21.3125" height="23.1875" rx="3" ry="3"></rect><text x="0" y="0" transform="matrix(1,0,0,1,5,16.5938)"><tspan class="quote">“</tspan><tspan>:</tspan><tspan class="quote">”</tspan></text></g></g></g></g></g></g></g><g transform="matrix(1,0,0,1,434.6093,0)" class="match-fragment"><path d="M0,289.29695q10,0 10,-10v-269.59380020446775q0,-10 10,-10h431.26556396484375q10,0 10,10v269.59380020446775q0,10 10,10M15,289.29695q-10,0 -10,10v237.5937608306885q0,10 10,10h441.26556396484375q10,0 10,-10v-237.5937608306885q0,-10 -10,-10M466.26556396484375,304.29695l5,-5m-5,5l-5,-5"></path><g transform="matrix(1,0,0,1,15,10)" class="subexp"><rect rx="3" ry="3" class="subexp-box" transform="matrix(1,0,0,1,0,11.2969)" width="441.2655944824219" height="515.5938110351562"></rect><text x="0" y="0" transform="matrix(1,0,0,1,0,11.2969)" class="subexp-label"><tspan>group #24</tspan></text><g transform="matrix(1,0,0,1,10,21.2969)" class="regexp match"><path d="M21.3125,258.00005H56.3125"></path><g transform="matrix(1,0,0,1,0,246.4063)" class="match-fragment literal"><g class="label"><rect width="21.3125" height="23.1875" rx="3" ry="3"></rect><text x="0" y="0" transform="matrix(1,0,0,1,5,16.5938)"><tspan class="quote">“</tspan><tspan>,</tspan><tspan class="quote">”</tspan></text></g></g><g transform="matrix(1,0,0,1,31.3125,0)" class="match-fragment"><path d="M0,258.00008031311035q10,0 10,-10v-238.29693051757812q0,-10 10,-10h349.9530944824219q10,0 10,10v238.29693051757812q0,10 10,10"></path><g transform="matrix(1,0,0,1,15,10)" class="subexp"><rect rx="3" ry="3" class="subexp-box" transform="matrix(1,0,0,1,0,11.2969)" width="359.9530944824219" height="474.00006103515625"></rect><text x="0" y="0" transform="matrix(1,0,0,1,0,11.2969)" class="subexp-label"><tspan>group #25</tspan></text><g transform="matrix(1,0,0,1,10,21.2969)" class="regexp"><path d="M10,52.89065q0,-10 10,-10M329.9530944824219,52.89065q0,-10 -10,-10M10,132.73445q0,-10 10,-10M329.9530944824219,132.73445q0,-10 -10,-10M10,212.57815q0,-10 10,-10M329.9530944824219,212.57815q0,-10 -10,-10M10,272.42195q0,10 10,10M329.9530944824219,272.42195q0,10 -10,10M10,352.26565q0,10 10,10M329.9530944824219,352.26565q0,10 -10,10M10,422.10945q0,10 10,10M329.9530944824219,422.10945q0,10 -10,10M0,226.70318031311035q10,0 10,-10V52.89065M339.9530944824219,226.70318031311035q-10,0 -10,-10V52.89065M0,226.70318031311035q10,0 10,10V422.10945M339.9530944824219,226.70318031311035q-10,0 -10,10V422.10945"></path><g transform="matrix(1,0,0,1,20,0)" class="regexp-matches"><path d="M0,42.89065h105.4843M194.4687,42.89065H299.9530944824219M0,122.73445000000001h89.8281M225.125,122.73445000000001H299.9530944824219M0,202.57815h74.8281M210.125,202.57815H299.9530944824219M0,282.42195h25.3359M274.61719999999997,282.42195H299.9530944824219M0,362.26565h25M274.9531,362.26565H299.9530944824219M0,432.10945h139.3203M160.6328,432.10945H299.9530944824219"></path><g transform="matrix(1,0,0,1,80.4843,0)" class="match match-fragment subexp"><rect rx="3" ry="3" class="subexp-box" transform="matrix(1,0,0,1,0,11.2969)" width="138.98440551757812" height="63.25"></rect><text x="0" y="0" transform="matrix(1,0,0,1,0,11.2969)" class="subexp-label"><tspan>group #26</tspan></text><g transform="matrix(1,0,0,1,10,21.2969)" class="regexp match"><path d="M36.984375,21.59375H71.9844"></path><g transform="matrix(1,0,0,1,0,0)" class="match-fragment"><path d="M0,21.59375q10,0 10,-10v-1.59375q0,-10 10,-10h11.984375q10,0 10,10v1.59375q0,10 10,10"></path><g transform="matrix(1,0,0,1,15,10)" class="literal"><g class="label"><rect width="21.984375" height="23.1875" rx="3" ry="3"></rect><text x="0" y="0" transform="matrix(1,0,0,1,5,16.5938)"><tspan class="quote">“</tspan><tspan>-</tspan><tspan class="quote">”</tspan></text></g></g></g><g transform="matrix(1,0,0,1,61.9844,9.9375)" class="match-fragment"><path d="M10,11.65625q-10,0 -10,10v1.65625q0,10 10,10h32q10,0 10,-10v-1.65625q0,-10 -10,-10M52,26.65625l5,-5m-5,5l-5,-5"></path><g transform="matrix(1,0,0,1,10,0)" class="escape"><g class="label"><rect width="32" height="23.3125" rx="3" ry="3"></rect><text x="0" y="0" transform="matrix(1,0,0,1,5,16.6563)"><tspan>digit</tspan></text></g></g></g></g></g><g transform="matrix(1,0,0,1,64.8281,79.8438)" class="match match-fragment subexp"><rect rx="3" ry="3" class="subexp-box" transform="matrix(1,0,0,1,0,11.2969)" width="170.29690551757812" height="63.25"></rect><text x="0" y="0" transform="matrix(1,0,0,1,0,11.2969)" class="subexp-label"><tspan>group #27</tspan></text><g transform="matrix(1,0,0,1,10,21.2969)" class="regexp match"><path d="M36.984375,21.59375H71.9844M103.9844,21.59375H128.9844"></path><g transform="matrix(1,0,0,1,0,0)" class="match-fragment"><path d="M0,21.59375q10,0 10,-10v-1.59375q0,-10 10,-10h11.984375q10,0 10,10v1.59375q0,10 10,10"></path><g transform="matrix(1,0,0,1,15,10)" class="literal"><g class="label"><rect width="21.984375" height="23.1875" rx="3" ry="3"></rect><text x="0" y="0" transform="matrix(1,0,0,1,5,16.5938)"><tspan class="quote">“</tspan><tspan>-</tspan><tspan class="quote">”</tspan></text></g></g></g><g transform="matrix(1,0,0,1,61.9844,9.9375)" class="match-fragment"><path d="M10,11.65625q-10,0 -10,10v1.65625q0,10 10,10h32q10,0 10,-10v-1.65625q0,-10 -10,-10M52,26.65625l5,-5m-5,5l-5,-5"></path><g transform="matrix(1,0,0,1,10,0)" class="escape"><g class="label"><rect width="32" height="23.3125" rx="3" ry="3"></rect><text x="0" y="0" transform="matrix(1,0,0,1,5,16.6563)"><tspan>digit</tspan></text></g></g></g><g transform="matrix(1,0,0,1,128.9844,10)" class="match-fragment literal"><g class="label"><rect width="21.3125" height="23.1875" rx="3" ry="3"></rect><text x="0" y="0" transform="matrix(1,0,0,1,5,16.5938)"><tspan class="quote">“</tspan><tspan>:</tspan><tspan class="quote">”</tspan></text></g></g></g></g><g transform="matrix(1,0,0,1,64.8281,159.6875)" class="match match-fragment subexp"><rect rx="3" ry="3" class="subexp-box" transform="matrix(1,0,0,1,0,11.2969)" width="170.29690551757812" height="63.25"></rect><text x="0" y="0" transform="matrix(1,0,0,1,0,11.2969)" class="subexp-label"><tspan>group #28</tspan></text><g transform="matrix(1,0,0,1,10,21.2969)" class="regexp match"><path d="M21.3125,21.59375H46.3125M68.296875,21.59375H103.2969"></path><g transform="matrix(1,0,0,1,0,10)" class="match-fragment literal"><g class="label"><rect width="21.3125" height="23.1875" rx="3" ry="3"></rect><text x="0" y="0" transform="matrix(1,0,0,1,5,16.5938)"><tspan class="quote">“</tspan><tspan>:</tspan><tspan class="quote">”</tspan></text></g></g><g transform="matrix(1,0,0,1,31.3125,0)" class="match-fragment"><path d="M0,21.59375q10,0 10,-10v-1.59375q0,-10 10,-10h11.984375q10,0 10,10v1.59375q0,10 10,10"></path><g transform="matrix(1,0,0,1,15,10)" class="literal"><g class="label"><rect width="21.984375" height="23.1875" rx="3" ry="3"></rect><text x="0" y="0" transform="matrix(1,0,0,1,5,16.5938)"><tspan class="quote">“</tspan><tspan>-</tspan><tspan class="quote">”</tspan></text></g></g></g><g transform="matrix(1,0,0,1,93.2969,9.9375)" class="match-fragment"><path d="M10,11.65625q-10,0 -10,10v1.65625q0,10 10,10h32q10,0 10,-10v-1.65625q0,-10 -10,-10M52,26.65625l5,-5m-5,5l-5,-5"></path><g transform="matrix(1,0,0,1,10,0)" class="escape"><g class="label"><rect width="32" height="23.3125" rx="3" ry="3"></rect><text x="0" y="0" transform="matrix(1,0,0,1,5,16.6563)"><tspan>digit</tspan></text></g></g></g></g></g><g transform="matrix(1,0,0,1,0.3359,239.5313)" class="match match-fragment subexp"><rect rx="3" ry="3" class="subexp-box" transform="matrix(1,0,0,1,0,11.2969)" width="299.28131103515625" height="63.25"></rect><text x="0" y="0" transform="matrix(1,0,0,1,0,11.2969)" class="subexp-label"><tspan>group #29</tspan></text><g transform="matrix(1,0,0,1,10,21.2969)" class="regexp match"><path d="M36.984375,21.59375H71.9844M103.9844,21.59375H128.9844M150.2969,21.59375H175.2969M197.281275,21.59375H232.2813"></path><g transform="matrix(1,0,0,1,0,0)" class="match-fragment"><path d="M0,21.59375q10,0 10,-10v-1.59375q0,-10 10,-10h11.984375q10,0 10,10v1.59375q0,10 10,10"></path><g transform="matrix(1,0,0,1,15,10)" class="literal"><g class="label"><rect width="21.984375" height="23.1875" rx="3" ry="3"></rect><text x="0" y="0" transform="matrix(1,0,0,1,5,16.5938)"><tspan class="quote">“</tspan><tspan>-</tspan><tspan class="quote">”</tspan></text></g></g></g><g transform="matrix(1,0,0,1,61.9844,9.9375)" class="match-fragment"><path d="M10,11.65625q-10,0 -10,10v1.65625q0,10 10,10h32q10,0 10,-10v-1.65625q0,-10 -10,-10M52,26.65625l5,-5m-5,5l-5,-5"></path><g transform="matrix(1,0,0,1,10,0)" class="escape"><g class="label"><rect width="32" height="23.3125" rx="3" ry="3"></rect><text x="0" y="0" transform="matrix(1,0,0,1,5,16.6563)"><tspan>digit</tspan></text></g></g></g><g transform="matrix(1,0,0,1,128.9844,10)" class="match-fragment literal"><g class="label"><rect width="21.3125" height="23.1875" rx="3" ry="3"></rect><text x="0" y="0" transform="matrix(1,0,0,1,5,16.5938)"><tspan class="quote">“</tspan><tspan>:</tspan><tspan class="quote">”</tspan></text></g></g><g transform="matrix(1,0,0,1,160.2969,0)" class="match-fragment"><path d="M0,21.59375q10,0 10,-10v-1.59375q0,-10 10,-10h11.984375q10,0 10,10v1.59375q0,10 10,10"></path><g transform="matrix(1,0,0,1,15,10)" class="literal"><g class="label"><rect width="21.984375" height="23.1875" rx="3" ry="3"></rect><text x="0" y="0" transform="matrix(1,0,0,1,5,16.5938)"><tspan class="quote">“</tspan><tspan>-</tspan><tspan class="quote">”</tspan></text></g></g></g><g transform="matrix(1,0,0,1,222.2813,9.9375)" class="match-fragment"><path d="M10,11.65625q-10,0 -10,10v1.65625q0,10 10,10h32q10,0 10,-10v-1.65625q0,-10 -10,-10M52,26.65625l5,-5m-5,5l-5,-5"></path><g transform="matrix(1,0,0,1,10,0)" class="escape"><g class="label"><rect width="32" height="23.3125" rx="3" ry="3"></rect><text x="0" y="0" transform="matrix(1,0,0,1,5,16.6563)"><tspan>digit</tspan></text></g></g></g></g></g><g transform="matrix(1,0,0,1,0,319.375)" class="match match-fragment subexp"><rect rx="3" ry="3" class="subexp-box" transform="matrix(1,0,0,1,0,11.2969)" width="299.9530944824219" height="63.25"></rect><text x="0" y="0" transform="matrix(1,0,0,1,0,11.2969)" class="subexp-label"><tspan>group #30</tspan></text><g transform="matrix(1,0,0,1,10,21.2969)" class="regexp match"><path d="M36.984375,21.59375H71.9844M103.9844,21.59375H128.9844M150.968775,21.59375H175.9688M197.953175,21.59375H232.9531"></path><g transform="matrix(1,0,0,1,0,0)" class="match-fragment"><path d="M0,21.59375q10,0 10,-10v-1.59375q0,-10 10,-10h11.984375q10,0 10,10v1.59375q0,10 10,10"></path><g transform="matrix(1,0,0,1,15,10)" class="literal"><g class="label"><rect width="21.984375" height="23.1875" rx="3" ry="3"></rect><text x="0" y="0" transform="matrix(1,0,0,1,5,16.5938)"><tspan class="quote">“</tspan><tspan>-</tspan><tspan class="quote">”</tspan></text></g></g></g><g transform="matrix(1,0,0,1,61.9844,9.9375)" class="match-fragment"><path d="M10,11.65625q-10,0 -10,10v1.65625q0,10 10,10h32q10,0 10,-10v-1.65625q0,-10 -10,-10M52,26.65625l5,-5m-5,5l-5,-5"></path><g transform="matrix(1,0,0,1,10,0)" class="escape"><g class="label"><rect width="32" height="23.3125" rx="3" ry="3"></rect><text x="0" y="0" transform="matrix(1,0,0,1,5,16.6563)"><tspan>digit</tspan></text></g></g></g><g transform="matrix(1,0,0,1,128.9844,10)" class="match-fragment literal"><g class="label"><rect width="21.984375" height="23.1875" rx="3" ry="3"></rect><text x="0" y="0" transform="matrix(1,0,0,1,5,16.5938)"><tspan class="quote">“</tspan><tspan>-</tspan><tspan class="quote">”</tspan></text></g></g><g transform="matrix(1,0,0,1,160.9688,0)" class="match-fragment"><path d="M0,21.59375q10,0 10,-10v-1.59375q0,-10 10,-10h11.984375q10,0 10,10v1.59375q0,10 10,10"></path><g transform="matrix(1,0,0,1,15,10)" class="literal"><g class="label"><rect width="21.984375" height="23.1875" rx="3" ry="3"></rect><text x="0" y="0" transform="matrix(1,0,0,1,5,16.5938)"><tspan class="quote">“</tspan><tspan>-</tspan><tspan class="quote">”</tspan></text></g></g></g><g transform="matrix(1,0,0,1,222.9531,9.9375)" class="match-fragment"><path d="M10,11.65625q-10,0 -10,10v1.65625q0,10 10,10h32q10,0 10,-10v-1.65625q0,-10 -10,-10M52,26.65625l5,-5m-5,5l-5,-5"></path><g transform="matrix(1,0,0,1,10,0)" class="escape"><g class="label"><rect width="32" height="23.3125" rx="3" ry="3"></rect><text x="0" y="0" transform="matrix(1,0,0,1,5,16.6563)"><tspan>digit</tspan></text></g></g></g></g></g><g transform="matrix(1,0,0,1,127.4609,399.2188)" class="match match-fragment subexp"><rect rx="3" ry="3" class="subexp-box" transform="matrix(1,0,0,1,0,11.2969)" width="45.03125" height="43.1875"></rect><text x="0" y="0" transform="matrix(1,0,0,1,0,11.2969)" class="subexp-label"><tspan>group #31</tspan></text><g transform="matrix(1,0,0,1,11.8594,21.2969)" class="regexp match match-fragment literal"><g class="label"><rect width="21.3125" height="23.1875" rx="3" ry="3"></rect><text x="0" y="0" transform="matrix(1,0,0,1,5,16.5938)"><tspan class="quote">“</tspan><tspan>:</tspan><tspan class="quote">”</tspan></text></g></g></g></g></g></g></g></g></g></g><g transform="matrix(1,0,0,1,915.8749,277.7032)" class="match-fragment literal"><g class="label"><rect width="21.3125" height="23.1875" rx="3" ry="3"></rect><text x="0" y="0" transform="matrix(1,0,0,1,5,16.5938)"><tspan class="quote">“</tspan><tspan>]</tspan><tspan class="quote">”</tspan></text></g></g></g></g></g><g transform="matrix(1,0,0,1,2021.7185,309.0001)" class="match-fragment"><g class="label anchor"><rect width="66.703125" height="23.1875"></rect><text x="0" y="0" transform="matrix(1,0,0,1,5,16.5938)"><tspan>End of line</tspan></text></g></g></g><path d="M10,320.59385H0M2098.421625,320.59385H2108.421630859375"></path><circle cx="0" cy="320.59385" r="5"></circle><circle cx="2108.421630859375" cy="320.59385" r="5"></circle></g></svg>
          